<?xml version="1.0" encoding="UTF-8"?>
<svg width="1920" height="1080" xmlns="http://www.w3.org/2000/svg">
  <g>
    <path fill="#009250" d="M845.77 284.77c-36.42 0-66.07 29.65-66.07 66.07s29.65 66.07 66.07 66.07 66.07-29.65 66.07-66.07-29.65-66.07-66.07-66.07zm0 122.14c-30.92 0-56.07-25.15-56.07-56.07s25.15-56.07 56.07-56.07 56.07 25.15 56.07 56.07-25.15 56.07-56.07 56.07z"/>
    <path fill="#009250" d="M845.77 304.77c-25.42 0-46.07 20.65-46.07 46.07s20.65 46.07 46.07 46.07 46.07-20.65 46.07-46.07-20.65-46.07-46.07-46.07zm0 82.14c-19.92 0-36.07-16.15-36.07-36.07s16.15-36.07 36.07-36.07 36.07 16.15 36.07 36.07-16.15 36.07-36.07 36.07z"/>
    <path fill="#009250" d="M845.77 324.77c-14.42 0-26.07 11.65-26.07 26.07s11.65 26.07 26.07 26.07 26.07-11.65 26.07-26.07-11.65-26.07-26.07-26.07zm0 42.14c-8.92 0-16.07-7.15-16.07-16.07s7.15-16.07 16.07-16.07 16.07 7.15 16.07 16.07-7.15 16.07-16.07 16.07z"/>
    <text x="680" y="800" font-family="Arial" font-size="120" fill="#009250" font-weight="bold">BEULAH WALK</text>
    <text x="750" y="920" font-family="Arial" font-size="120" fill="#009250" font-weight="bold">OF HOPE</text>
    <text x="720" y="1020" font-family="Arial" font-size="80" fill="#009250">FOUNDATION</text>
  </g>
</svg>